#!OML:ASF H:\Male1\Project 1\Capture day 1\Session 1\Male1.ASF
:FULLY-SPECIFIED
:DEGREES
785
root -2.42888 15.1165 -2.85506 -2.92867 7.3331 1.43756
lowerback 7.98578 1.36834 -6.91254
upperback 5.50022 1.42172 -3.75596
thorax 1.18135 0.601165 -0.115206
lowerneck -10.1547 -1.00636 0.235605
upperneck 13.0718 -2.2907 6.12968
head 5.69469 -0.651998 1.70946
rclavicle -2.34566e-014 -1.43125e-014
rhumerus -45.989 11.8567 -93.755
rradius 35.3972
rwrist -19.5646
rhand -15.8109 1.68372
rfingers 7.12502
rthumb 10.3825 -28.0399
lclavicle -2.34566e-014 -1.43125e-014
lhumerus -44.3489 -2.22986 77.4762
lradius 33.1671
lwrist 7.36492
lhand -22.3053 14.4407
lfingers 7.12502
lthumb 4.11393 44.3807
rfemur -4.35919 16.4367 3.83415
rtibia 24.2899
rfoot -38.9254 -33.2603
rtoes -3.65887
lfemur 2.87678 -2.20911 -15.3896
ltibia 23.7639
lfoot -24.3641 14.8786
ltoes -5.49382
786
root -2.64585 15.0933 -2.83944 -2.79581 6.76966 1.59224
lowerback 8.13957 1.20324 -6.90516
upperback 5.39303 1.1773 -3.64174
thorax 0.993105 0.482687 0.0133955
lowerneck -10.2751 -0.686991 0.0447113
upperneck 13.094 -1.78627 5.8259
head 5.7035 -0.43645 1.68506
rclavicle 2.18663e-015 6.36111e-014
rhumerus -45.8631 12.7205 -93.5862
rradius 35.2924
rwrist -18.9167
rhand -15.3503 1.75125
rfingers 7.12502
rthumb 10.8269 -27.9497
lclavicle 2.18663e-015 6.36111e-014
lhumerus -44.8297 -1.75954 77.704
lradius 33.4365
lwrist 8.93836
lhand -23.7179 14.8316
lfingers 7.12502
lthumb 2.74976 44.7936
rfemur -4.38509 15.6932 4.1228
rtibia 24.1416
rfoot -37.4666 -32.8196
rtoes -5.75917
lfemur 2.88757 -1.93605 -14.5632
ltibia 23.6151
lfoot -23.9167 14.9592
ltoes -6.2112
787
root -2.87077 15.0726 -2.81708 -2.65803 6.22495 1.47004
lowerback 8.16967 1.06688 -6.53814
upperback 5.34609 1.01178 -3.53293
thorax 0.93567 0.408528 -0.0654262
lowerneck -10.5561 -0.439345 -0.107256
upperneck 13.1852 -1.40323 5.60627
head 5.76667 -0.268104 1.67201
rclavicle 1.21259e-014 2.22639e-014
rhumerus -45.5558 13.262 -93.4191
rradius 35.1137
rwrist -18.3591
rhand -15.0397 1.86846
rfingers 7.12502
rthumb 11.1264 -27.8166
lclavicle 1.21259e-014 2.22639e-014
lhumerus -45.1687 -1.68981 77.8469
lradius 33.6549
lwrist 10.1085
lhand -26.7603 15.2898
lfingers 7.12502
lthumb -0.188554 45.2694
rfemur -4.60144 14.8299 4.91734
rtibia 24.2419
rfoot -36.3157 -32.4867
rtoes -8.30137
lfemur 3.12321 -2.12746 -13.5007
ltibia 23.0459
lfoot -23.371 15.406
ltoes -7.00533
788
root -3.10799 15.0639 -2.7893 -2.48931 5.72594 1.74711
lowerback 8.14573 0.974112 -6.58356
upperback 5.35099 0.887194 -3.5372
thorax 0.959499 0.344047 -0.0350616
lowerneck -10.5853 -0.212726 -0.44116
upperneck 12.9652 -1.03472 5.63577
head 5.69185 -0.107545 1.7643
rclavicle 1.2921e-014 4.77083e-014
rhumerus -45.1958 13.7091 -93.2634
rradius 35.0273
rwrist -18.1794
rhand -15.0264 1.96796
rfingers 7.12502
rthumb 11.1393 -27.7164
lclavicle 1.2921e-014 4.77083e-014
lhumerus -45.3136 -1.38307 77.5699
lradius 33.6139
lwrist 9.37253
lhand -24.764 14.5229
lfingers 7.12502
lthumb 1.73947 44.4955
rfemur -4.88062 14.5424 5.42382
rtibia 24.2842
rfoot -34.9716 -32.6968
rtoes -11.6238
lfemur 3.50561 -2.73656 -12.9413
ltibia 22.3056
lfoot -22.7162 16.3721
ltoes -8.3948
789
root -3.35725 15.0706 -2.75802 -2.30172 5.31226 2.91943
lowerback 8.19612 0.951638 -7.49802
upperback 5.36897 0.794345 -3.82134
thorax 0.957466 0.279578 0.182442
lowerneck -10.3852 -0.0107629 -0.701506
upperneck 12.5208 -0.697951 5.6563
head 5.50761 0.0339736 1.83584
rclavicle -1.0138e-014 -1.59028e-014
rhumerus -44.8367 13.8749 -93.1686
rradius 34.9667
rwrist -18.0919
rhand -15.2134 2.04151
rfingers 7.12502
rthumb 10.9589 -27.6525
lclavicle -1.0138e-014 -1.59028e-014
lhumerus -45.3575 -0.930448 76.9232
lradius 33.358
lwrist 7.12889
lhand -21.7136 13.9219
lfingers 7.12502
lthumb 4.68529 43.8501
rfemur -5.39444 14.2508 4.90197
rtibia 24.5794
rfoot -32.8209 -32.6801
rtoes -14.5395
lfemur 4.2523 -3.81728 -13.3989
ltibia 21.1345
lfoot -22.072 17.323
ltoes -8.45065
790
root -3.61016 15.1057 -2.73737 -2.04173 4.73247 1.86761
lowerback 8.16847 0.939296 -6.01099
upperback 5.29731 0.869477 -3.62827
thorax 0.895917 0.351639 -0.446174
lowerneck -10.2271 0.102367 -0.739605
upperneck 12.1211 -0.509323 5.59008
head 5.3494 0.110175 1.83167
rclavicle -2.62396e-014 -9.54166e-015
rhumerus -44.5231 13.8277 -93.321
rradius 35.0173
rwrist -18.4377
rhand -16.0555 1.8039
rfingers 7.12502
rthumb 10.1466 -27.9314
lclavicle -2.62396e-014 -9.54166e-015
lhumerus -45.2849 -1.04039 76.479
lradius 33.1896
lwrist 5.66455
lhand -22.3523 13.7055
lfingers 7.12502
lthumb 4.06853 43.6464
rfemur -6.32642 14.4684 6.86567
rtibia 24.8277
rfoot -31.081 -32.3681
rtoes -14.6001
lfemur 4.70398 -5.56061 -11.4332
ltibia 19.9594
lfoot -21.6578 18.1908
ltoes -6.90995
